<svg id="Calque_1" data-name="Calque 1" xmlns="http://www.w3.org/2000/svg" viewBox="0 0 1201.4 372.92"><defs><style>.cls-1,.cls-3{fill:#f8f8f8;}.cls-1,.cls-3,.cls-5,.cls-6{stroke:#1d1d1b;stroke-miterlimit:10;}.cls-2{font-size:14px;}.cls-2,.cls-4{fill:#1d1d1b;font-family:Helvetica-Light, Helvetica;}.cls-3,.cls-5{stroke-width:0.5px;}.cls-4{font-size:12px;}.cls-5,.cls-6{fill:none;}.cls-7{letter-spacing:1.16em;}</style></defs><title>proposed-journey</title><circle class="cls-1" cx="1148.9" cy="261.35" r="52"/><rect class="cls-1" x="144.22" y="229.4" width="101.82" height="65"/><rect class="cls-1" x="399.86" y="229.4" width="113.16" height="65"/><polygon class="cls-1" points="355.11 288.1 261.22 288.1 292.19 237.16 386.08 237.16 355.11 288.1"/><rect class="cls-1" x="561.32" y="229.4" width="151.32" height="65"/><rect class="cls-1" x="867.66" y="187.16" width="169.65" height="38.67"/><rect class="cls-1" x="887.08" y="242.6" width="133.24" height="38.67"/><rect class="cls-1" x="855.17" y="298.6" width="186.86" height="38.67"/><rect class="cls-1" x="912.17" y="343.86" width="125.15" height="28.56"/><rect class="cls-1" x="828.15" y="243.93" width="56.06" height="56.06" transform="translate(1583.04 -151.32) rotate(135)"/><text class="cls-2" transform="translate(151.91 256.94)">User browses<tspan x="-1.56" y="16.8">library catalog</tspan></text><text class="cls-2" transform="translate(284.22 265.34)">Places order</text><text class="cls-2" transform="translate(411.32 256.94)">Delivery within<tspan x="15.94" y="16.8" xml:space="preserve">2-3  days</tspan></text><text class="cls-2" transform="translate(567.57 256.94)">User enjoys media for <tspan x="44.73" y="16.8">3 weeks</tspan></text><text class="cls-2" transform="translate(883.66 210.19)">Returns item to library</text><text class="cls-2" transform="translate(893.39 264.19)">Drops in a mailbox</text><text class="cls-2" transform="translate(764.7 264.78)">Return</text><text class="cls-2" transform="translate(885.77 322.19)"><tspan xml:space="preserve">Organises a  pickup </tspan></text><text class="cls-2" transform="translate(1106.88 264.78)">Item returned</text><circle class="cls-1" cx="61.86" cy="261.9" r="52"/><polygon class="cls-3" points="276.63 72.64 211.47 72.64 232.97 41.24 298.12 41.24 276.63 72.64"/><text class="cls-4" transform="translate(208.42 92.33)">Input / Output</text><text class="cls-2" transform="translate(8.31 16.37)">Legend</text><rect class="cls-3" x="113.73" y="43.21" width="62.54" height="27.46"/><rect class="cls-5" x="0.25" y="0.25" width="407.5" height="109.55"/><text class="cls-4" transform="translate(123.21 92.33)">Process</text><text class="cls-4" transform="translate(32.58 92.33)">Start / end</text><circle class="cls-3" cx="60.26" cy="56.94" r="17.5"/><rect class="cls-3" x="409.39" y="51.86" width="30.51" height="30.51" transform="translate(701.52 -195.87) rotate(135)"/><text class="cls-4" transform="translate(330.45 92.33)">Decision</text><text class="cls-2" transform="translate(921.44 362.19)">+ a new delivery</text><line class="cls-6" x1="866.15" y1="205.33" x2="843.81" y2="205.33"/><line class="cls-6" x1="1081.65" y1="261.35" x2="1023.01" y2="261.35"/><line class="cls-6" x1="854.15" y1="317.94" x2="843.81" y2="317.94"/><line class="cls-6" x1="843.81" y1="205.33" x2="843.81" y2="317.94"/><line class="cls-6" x1="912.17" y1="358.14" x2="898.15" y2="358.14"/><line class="cls-6" x1="898.15" y1="337.27" x2="898.15" y2="358.14"/><line class="cls-6" x1="1036.94" y1="358.14" x2="1052.25" y2="358.14"/><line class="cls-6" x1="1052.25" y1="317.94" x2="1052.25" y2="358.14"/><line class="cls-6" x1="1036.33" y1="205.33" x2="1058.67" y2="205.33"/><line class="cls-6" x1="833.92" y1="261.35" x2="880.38" y2="261.35"/><line class="cls-6" x1="716.56" y1="261.35" x2="740.36" y2="261.35"/><line class="cls-6" x1="518.06" y1="261.35" x2="556.67" y2="261.35"/><line class="cls-6" x1="1042.03" y1="317.94" x2="1058.67" y2="317.94"/><line class="cls-6" x1="1058.67" y1="205.33" x2="1058.67" y2="317.94"/><text class="cls-2" transform="translate(28.89 256.93)">User wants<tspan x="-18.99" y="16.8" xml:space="preserve">     new media</tspan><tspan class="cls-7" x="68.93" y="16.8">	</tspan></text><line class="cls-6" x1="377.02" y1="261.35" x2="394.88" y2="261.35"/><line class="cls-6" x1="249.97" y1="261.35" x2="273.73" y2="261.35"/><line class="cls-6" x1="121.02" y1="261.35" x2="138.88" y2="261.35"/></svg>