<?xml version="1.0" encoding="utf-8"?>
<!-- Generator: Adobe Illustrator 20.0.0, SVG Export Plug-In . SVG Version: 6.00 Build 0)  -->
<svg version="1.1" id="Calque_1" xmlns="http://www.w3.org/2000/svg" xmlns:xlink="http://www.w3.org/1999/xlink" x="0px" y="0px"
	 viewBox="0 0 1356 664" style="enable-background:new 0 0 1356 664;" xml:space="preserve">
<style type="text/css">
	.st0{fill:none;stroke:#000000;stroke-miterlimit:10;}
	.st1{font-family:'Helvetica-Light';}
	.st2{font-size:14px;}
	.st3{letter-spacing:-2;}
	.st4{font-family:'Helvetica-Oblique';}
	.st5{letter-spacing:-1;}
	.st6{letter-spacing:32;}
	.st7{letter-spacing:26;}
	.st8{letter-spacing:10;}
	.st9{fill:none;stroke:#000000;}
	.st10{fill:none;stroke:#000000;stroke-linecap:round;}
	.st11{stroke:#010202;stroke-miterlimit:10;}
	.st12{fill:none;stroke:#010202;stroke-miterlimit:10;}
</style>
<line class="st0" x1="521.8" y1="165.5" x2="521.8" y2="500.5"/>
<line class="st0" x1="296.5" y1="165.5" x2="296.5" y2="500.5"/>
<line class="st0" x1="993.6" y1="165.5" x2="993.6" y2="500.5"/>
<line class="st0" x1="747.2" y1="165.5" x2="747.2" y2="500.5"/>
<line class="st0" x1="1261.6" y1="353" x2="113.9" y2="353"/>
<text transform="matrix(1 0 0 1 124.9998 225.1511)"><tspan x="0" y="0" class="st1 st2">User wants new media</tspan><tspan x="142.4" y="0" class="st1 st2 st3">	</tspan></text>
<text transform="matrix(1 0 0 1 124 430.3203)" class="st4 st2">«I want to be entertained »</text>
<text transform="matrix(1 0 0 1 1047.998 288.5949)"><tspan x="0" y="0" class="st1 st2">User ends up ordering online </tspan><tspan x="0" y="16.8" class="st1 st2">at full price</tspan><tspan x="69.2" y="16.8" class="st1 st2 st5">	</tspan></text>
<text transform="matrix(1 0 0 1 1008.9985 430.3207)"><tspan x="0" y="0" class="st4 st2">«It’s quite convenient to have everything</tspan><tspan x="0" y="16.8" class="st4 st2">delivered at home »</tspan></text>
<text transform="matrix(1 0 0 1 314 160.6455)"><tspan x="0" y="0" class="st1 st2">User looks for recommandation</tspan><tspan x="0" y="16.8" class="st1 st2">through:</tspan><tspan x="0" y="50.4" class="st1 st2 st6">	</tspan><tspan x="36" y="50.4" class="st1 st2">-Friends</tspan><tspan x="0" y="67.2" class="st1 st2 st6">	</tspan><tspan x="36" y="67.2" class="st1 st2">-Newspaper</tspan><tspan x="0" y="84" class="st1 st2 st6">	</tspan><tspan x="36" y="84" class="st1 st2">-Radio...</tspan></text>
<text transform="matrix(1 0 0 1 311 430.3204)" class="st4 st2">«So many books, so little time!»</text>
<text transform="matrix(1 0 0 1 542 225.3676)"><tspan x="0" y="0" class="st1 st2">User wants to find new media</tspan><tspan x="185.2" y="0" class="st1 st2 st7">	</tspan></text>
<text transform="matrix(1 0 0 1 530 430.3199)" class="st4 st2">«Let’s see what the library has... »</text>
<text transform="matrix(1 0 0 1 762 242.7796)"><tspan x="0" y="0" class="st1 st2">User can’t use the library because:</tspan><tspan x="0" y="33.6" class="st1 st2 st6">	</tspan><tspan x="36" y="33.6" class="st1 st2">-Unpractical opening hours</tspan><tspan x="0" y="50.4" class="st1 st2 st6">	</tspan><tspan x="36" y="50.4" class="st1 st2">-Item is already borrowed</tspan><tspan x="0" y="67.2" class="st1 st2 st6">	</tspan><tspan x="36" y="67.2" class="st1 st2">-Item is not available</tspan><tspan x="165.2" y="67.2" class="st1 st2 st8">	</tspan></text>
<text transform="matrix(1 0 0 1 778.4989 477.6393)"><tspan x="0" y="0" class="st4 st2">«I always finish work too late</tspan><tspan x="0" y="16.8" class="st4 st2">  and can’t make it to the</tspan><tspan x="0" y="33.6" class="st4 st2"> library on time  »</tspan></text>
<g id="Works-well">
	<circle id="Border-Copy" class="st0" cx="185.9" cy="303.7" r="16.8"/>
	<path id="Shape-Copy-2" class="st0" d="M179.6,308.6c1.3,2.1,3.7,3.5,6.3,3.5 M191.9,308.6c-1.3,2.1-3.7,3.5-6.3,3.5"/>
	<circle id="Oval-Copy-18" class="st0" cx="191.7" cy="298.7" r="2.2"/>
	<circle id="Oval-Copy" class="st0" cx="179.8" cy="298.7" r="2.2"/>
</g>
<g id="Works-well_1_">
	<circle id="Border-Copy_1_" class="st0" cx="409.2" cy="272" r="16.8"/>
	<path id="Shape-Copy-2_1_" class="st0" d="M402.8,276.8c1.3,2.1,3.7,3.5,6.3,3.5 M415.1,276.8c-1.3,2.1-3.7,3.5-6.3,3.5"/>
	<circle id="Oval-Copy-18_1_" class="st0" cx="414.9" cy="266.9" r="2.2"/>
	<circle id="Oval-Copy_1_" class="st0" cx="403" cy="266.9" r="2.2"/>
</g>
<g id="Works-well_2_">
	<circle id="Border-Copy_2_" class="st0" cx="630.5" cy="310.3" r="16.8"/>
	<path id="Shape-Copy-2_2_" class="st0" d="M624.2,315.2c1.3,2.1,3.7,3.5,6.3,3.5 M636.5,315.2c-1.3,2.1-3.7,3.5-6.3,3.5"/>
	<circle id="Oval-Copy-18_2_" class="st0" cx="636.3" cy="305.3" r="2.2"/>
	<circle id="Oval-Copy_2_" class="st0" cx="624.3" cy="305.3" r="2.2"/>
</g>
<g id="Works-well_3_">
	<circle id="Border-Copy_3_" class="st0" cx="1085.2" cy="216.8" r="16.8"/>
	<path id="Shape-Copy-2_3_" class="st0" d="M1078.8,221.7c1.3,2.1,3.7,3.5,6.3,3.5 M1091.1,221.7c-1.3,2.1-3.7,3.5-6.3,3.5"/>
	<circle id="Oval-Copy-18_3_" class="st0" cx="1090.9" cy="211.8" r="2.2"/>
	<circle id="Oval-Copy_3_" class="st0" cx="1079" cy="211.8" r="2.2"/>
</g>
<circle id="Border" class="st9" cx="859.9" cy="411.1" r="16.8"/>
<path id="Shape-Copy" class="st10" d="M853.6,418.5c1.3-2.1,3.7-3.5,6.3-3.5 M865.9,418.5c-1.3-2.1-3.7-3.5-6.3-3.5"/>
<circle id="Oval-Copy-17" class="st0" cx="865.7" cy="406" r="2.2"/>
<circle id="Oval" class="st0" cx="853.7" cy="406" r="2.2"/>
<line class="st11" x1="220" y1="300.3" x2="376.4" y2="273.2"/>
<line class="st12" x1="444.8" y1="277.5" x2="599" y2="301.3"/>
<line class="st12" x1="662" y1="320.5" x2="825.9" y2="403.8"/>
<line class="st12" x1="895" y1="400.3" x2="1063.6" y2="225.4"/>
</svg>
